<svg width="48" height="46" viewBox="0 0 48 46" fill="none" xmlns="http://www.w3.org/2000/svg">
<path d="M5.55717 20.4636C5.55717 19.5156 5.16947 19.3952 4.53767 19.3952V19.2147H8.83101V19.3952C8.18485 19.3952 7.78281 19.5156 7.78281 20.4636V20.7796C10.8126 20.8096 12.7366 22.1639 12.7366 24.6014C12.7366 27.0841 10.8126 28.4835 7.78281 28.5136V28.9349C7.78281 29.8979 8.18485 30.0032 8.83101 30.0032V30.1988H4.53767V30.0032C5.16947 30.0032 5.55717 29.8979 5.55717 28.9349V28.5136C2.54178 28.4835 0.617676 27.1443 0.617676 24.7218C0.617676 22.209 2.52742 20.8247 5.55717 20.7796V20.4636ZM10.468 24.7519C10.468 22.0736 9.69259 21.0353 7.78281 20.9601V28.318C9.69259 28.2729 10.468 27.1744 10.468 24.7519ZM2.90075 24.5713C2.90075 27.1293 3.67614 28.2578 5.55717 28.318V20.9601C3.67614 21.0353 2.90075 22.0285 2.90075 24.5713ZM17.3034 30.274C15.049 30.274 13.5844 28.7694 13.5844 26.5274C13.5844 24.2854 15.049 22.7958 17.3034 22.7958C19.5434 22.7958 21.0224 24.2854 21.0224 26.5274C21.0224 28.7694 19.5434 30.274 17.3034 30.274ZM17.3034 30.1085C18.409 30.1085 18.9834 29.1154 18.9834 26.5425C18.9834 23.9695 18.409 22.9613 17.3034 22.9613C16.1834 22.9613 15.609 23.9695 15.609 26.5425C15.609 29.1154 16.1834 30.1085 17.3034 30.1085ZM21.67 33.2533V33.1029C22.1869 33.1029 22.4741 32.9374 22.4741 32.4107V23.9093C22.4741 23.2924 22.273 23.1269 21.67 23.1269V22.9763H24.4269V24.8723C24.7715 23.5933 25.5756 22.7958 26.8679 22.7958C28.5766 22.7958 29.7828 24.2854 29.7828 26.5124C29.7828 28.7694 28.4905 30.274 26.7674 30.274C25.5756 30.274 24.7715 29.6873 24.4269 28.318V32.3204C24.4269 32.9374 24.8433 33.1029 25.5038 33.1029V33.2533H21.67ZM26.0925 23.4729C25.0874 23.4729 24.4269 24.4509 24.4269 26.5274C24.4269 28.7242 25.0874 29.7775 26.1069 29.7775C27.1695 29.7775 27.7151 28.7092 27.7151 26.5274C27.7151 24.5262 27.1982 23.4729 26.0925 23.4729ZM30.4051 30.0935V29.943C31.0226 29.928 31.2955 29.5218 31.2955 28.5587V24.0447C31.2667 23.4128 30.9795 23.157 30.4195 23.1269V22.9763H33.076L35.3877 28.2879L37.398 22.9763H40.04V23.1269C39.4657 23.1269 39.2503 23.3375 39.2503 23.819V29.2508C39.2503 29.7324 39.4657 29.943 40.04 29.943V30.0935H36.479V29.943C37.0533 29.943 37.2831 29.7474 37.2831 29.2809V23.8942L34.9569 30.1085H34.0523L31.4964 24.0597V28.5587C31.4964 29.5218 31.8411 29.928 32.6308 29.943V30.0935H30.4051ZM45.0681 24.481C45.0394 23.4128 44.3359 22.9914 43.5892 22.9914C42.8138 22.9914 42.1389 23.3375 42.1389 23.7889C42.1389 24.2252 42.7133 24.3757 42.7133 25.098C42.7133 25.6697 42.2969 26.0459 41.7225 26.0459C41.1338 26.0459 40.7748 25.6396 40.7748 25.0529C40.7748 23.9243 42.0527 22.7958 44.0487 22.7958C45.5707 22.7958 46.9923 23.3977 46.9923 25.113V28.9198C46.9923 29.3562 47.1502 29.5066 47.4087 29.5066C47.5522 29.5066 47.6671 29.4765 47.8107 29.3562L47.8969 29.4464C47.3656 30.0032 46.9061 30.274 46.303 30.274C45.5851 30.274 45.0968 29.913 45.0968 29.1455V28.2428C44.5943 29.8227 43.4743 30.274 42.4692 30.274C41.3491 30.274 40.66 29.6873 40.66 28.664C40.66 27.701 41.2486 27.2346 42.8425 26.5726C43.302 26.392 43.6753 26.2114 44.0487 25.9857C44.8241 25.5494 45.0968 25.113 45.0681 24.481ZM45.0825 26.9939V25.5795L44.6517 25.8202C43.1297 26.6478 42.5984 27.1744 42.5984 28.1525C42.5984 29.0251 42.9143 29.5066 43.5605 29.5066C44.3933 29.5066 45.0825 28.6189 45.0825 26.9939Z" fill="#2D2D2D"/>
<path d="M11.1507 38.223L12.7159 40.9163C13.2471 41.8944 13.4338 42.1953 14.0225 42.1953V42.3458H11.2799L9.24096 38.7346L10.6625 37.0493C10.921 36.7635 11.0789 36.4775 11.0789 36.1164C11.0789 35.665 10.8204 35.3792 10.2317 35.3792V35.2287H13.6635V35.3792C12.6871 35.4394 11.8256 36.0261 10.8779 37.1246L9.91582 38.223H11.1507ZM6.13944 42.3458V42.1953C6.65636 42.1953 6.94354 42.0298 6.94354 41.5032V36.0713C6.94354 35.5447 6.65636 35.3792 6.13944 35.3792V35.2287H9.64305V35.3792C9.1261 35.3792 8.83892 35.5447 8.83892 36.0713V41.5032C8.83892 42.0298 9.1261 42.1953 9.64305 42.1953V42.3458H6.13944ZM4.68919 38.223H5.86662L4.90457 37.1246C3.97124 36.0261 3.12405 35.4394 2.162 35.3792V35.2287H5.55072V35.3792C4.97636 35.3792 4.7179 35.665 4.7179 36.1164C4.7179 36.4775 4.86149 36.7635 5.1056 37.0493L6.55585 38.7346L4.51688 42.3458H1.81738V42.1953C2.4061 42.1953 2.57841 41.8944 3.12405 40.9163L4.68919 38.223ZM14.2336 42.3458V42.1953C14.7362 42.1953 15.0377 42.0298 15.0377 41.5032V36.0713C15.0377 35.5447 14.7362 35.3792 14.2336 35.3792V35.2287H17.7228V35.3792C17.249 35.3792 16.9906 35.5296 16.9906 36.0261V41.2172L19.6039 35.8907C19.5608 35.4995 19.3167 35.3792 18.8859 35.3792V35.2287H22.3607V35.3792C21.8582 35.3792 21.5711 35.5447 21.5711 36.0713V41.5032C21.5711 42.0298 21.8582 42.1953 22.3607 42.1953V42.3458H18.8859V42.1953C19.3598 42.1953 19.6183 42.0599 19.6183 41.5483V36.3421L17.0049 41.6838C17.048 42.09 17.2921 42.1953 17.7228 42.1953V42.3458H14.2336ZM25.8728 42.5263C23.9343 42.5263 22.8574 41.6988 22.8574 40.5853C22.8574 40.0136 23.202 39.5922 23.762 39.5922C24.3076 39.5922 24.6236 39.9835 24.6236 40.48C24.6236 41.1571 24.0779 41.2172 24.0779 41.6988C24.0779 42.1351 24.724 42.3157 25.2122 42.3157C26.1599 42.3157 26.921 41.759 26.921 40.4198C26.921 39.5621 26.5907 38.6443 25.4277 38.6443H24.5374V38.4487H25.5138C26.5476 38.4487 26.8348 37.7565 26.8348 36.8989C26.8348 35.8757 26.3466 35.2889 25.5138 35.2889C24.3076 35.2889 23.7046 36.5227 23.5179 37.9671H23.3887V35.0933H23.5035C23.5322 35.334 23.6759 35.4995 23.9199 35.4995C24.3938 35.4995 24.9395 35.0482 26.1743 35.0482C27.7968 35.0482 28.759 35.7553 28.759 36.8086C28.759 37.8618 27.8255 38.4337 26.2318 38.539C28.0123 38.5691 28.9169 39.2311 28.9169 40.4048C28.9169 41.6537 27.8112 42.5263 25.8728 42.5263ZM29.5181 42.3458V42.1953C30.0207 42.1953 30.3222 42.0298 30.3222 41.5032V36.0713C30.3222 35.5447 30.0207 35.3792 29.5181 35.3792V35.2287H33.0073V35.3792C32.5335 35.3792 32.2751 35.5296 32.2751 36.0261V38.554H34.8453V36.0261C34.8453 35.5296 34.5868 35.3792 34.113 35.3792V35.2287H37.6022V35.3792C37.0853 35.3792 36.7981 35.5447 36.7981 36.0713V41.5032C36.7981 42.0298 37.0853 42.1953 37.6022 42.1953V42.3458H34.113V42.1953C34.5868 42.1953 34.8453 42.0599 34.8453 41.5483V38.7496H32.2751V41.5483C32.2751 42.0599 32.5335 42.1953 33.0073 42.1953V42.3458H29.5181ZM38.0859 42.3458V42.1953C38.5884 42.1953 38.89 42.0298 38.89 41.5032V36.0713C38.89 35.5447 38.5884 35.3792 38.0859 35.3792V35.2287H41.5751V35.3792C41.1013 35.3792 40.8428 35.5296 40.8428 36.0261V41.2172L43.4562 35.8907C43.4131 35.4995 43.1689 35.3792 42.7382 35.3792V35.2287H46.2131V35.3792C45.7105 35.3792 45.4234 35.5447 45.4234 36.0713V41.5032C45.4234 42.0298 45.7105 42.1953 46.2131 42.1953V42.3458H42.7382V42.1953C43.212 42.1953 43.4705 42.0599 43.4705 41.5483V36.3421L40.8572 41.6838C40.9003 42.09 41.1443 42.1953 41.5751 42.1953V42.3458H38.0859Z" fill="#2D2D2D"/>
<path d="M12.7178 3.86917C18.269 3.86917 22.7691 8.58482 22.7691 14.4018V18.9159H18.8717C15.473 18.9159 12.7178 16.0287 12.7178 12.4673V3.86917Z" fill="#BFADA2"/>
<path d="M36.3077 0C29.5104 0 24 5.77426 24 12.8972V18.9159H30.1539C33.5526 18.9159 36.3077 16.0287 36.3077 12.4672V0Z" fill="#F1E5DD"/>
</svg>
